<?xml version="1.0" encoding="UTF-8" standalone="no"?>
<!DOCTYPE svg PUBLIC "-//W3C//DTD SVG 1.1//EN"
 "http://www.w3.org/Graphics/SVG/1.1/DTD/svg11.dtd">
<!-- Generated by graphviz version 2.40.1 (20161225.0304)
 -->
<!-- Title: dependencies Pages: 1 -->
<svg width="3710pt" height="211pt"
 viewBox="0.00 0.00 3710.00 211.00" xmlns="http://www.w3.org/2000/svg" xmlns:xlink="http://www.w3.org/1999/xlink">
<g id="graph0" class="graph" transform="scale(1 1) rotate(0) translate(4 207)">
<title>dependencies</title>
<polygon fill="#ffffff" stroke="transparent" points="-4,4 -4,-207 3706,-207 3706,4 -4,4"/>
<text text-anchor="start" x="1830.0091" y="-42.4" font-family="sans-serif" font-weight="bold" font-size="14.00" fill="#000000">Legend</text>
<polygon fill="#ffffb3" stroke="transparent" points="1617,-10 1617,-30 1637,-30 1637,-10 1617,-10"/>
<text text-anchor="start" x="1640.629" y="-15.4" font-family="sans-serif" font-size="14.00" fill="#000000"> &#160;Declarations</text>
<polygon fill="#8dd3c7" stroke="transparent" points="1730,-10 1730,-30 1750,-30 1750,-10 1730,-10"/>
<text text-anchor="start" x="1753.7251" y="-15.4" font-family="sans-serif" font-size="14.00" fill="#000000"> &#160;Module</text>
<polygon fill="#80b1d3" stroke="transparent" points="1816,-10 1816,-30 1836,-30 1836,-10 1816,-10"/>
<text text-anchor="start" x="1839.7812" y="-15.4" font-family="sans-serif" font-size="14.00" fill="#000000"> &#160;Bootstrap</text>
<polygon fill="#fdb462" stroke="transparent" points="1913,-10 1913,-30 1933,-30 1933,-10 1913,-10"/>
<text text-anchor="start" x="1936.6732" y="-15.4" font-family="sans-serif" font-size="14.00" fill="#000000"> &#160;Providers</text>
<polygon fill="#fb8072" stroke="transparent" points="2009,-10 2009,-30 2029,-30 2029,-10 2009,-10"/>
<text text-anchor="start" x="2032.7258" y="-15.4" font-family="sans-serif" font-size="14.00" fill="#000000"> &#160;Exports</text>
<g id="clust1" class="cluster">
<title>cluster_CoreModule</title>
<polygon fill="none" stroke="#000000" stroke-dasharray="1,5" points="8,-70 8,-195 3694,-195 3694,-70 8,-70"/>
</g>
<g id="clust6" class="cluster">
<title>cluster_CoreModule_providers</title>
<polygon fill="none" stroke="#000000" points="16,-78 16,-130 3686,-130 3686,-78 16,-78"/>
</g>
<!-- MenuEvent -->
<g id="node1" class="node">
<title>MenuEvent</title>
<ellipse fill="#fdb462" stroke="#000000" cx="3622" cy="-104" rx="56.1821" ry="18"/>
<text text-anchor="middle" x="3622" y="-99.8" font-family="Times,serif" font-size="14.00" fill="#000000">MenuEvent</text>
</g>
<!-- CoreModule -->
<g id="node22" class="node">
<title>CoreModule</title>
<polygon fill="#8dd3c7" stroke="#000000" points="2096.2619,-187 2093.2619,-191 2072.2619,-191 2069.2619,-187 2009.7381,-187 2009.7381,-151 2096.2619,-151 2096.2619,-187"/>
<text text-anchor="middle" x="2053" y="-164.8" font-family="Times,serif" font-size="14.00" fill="#000000">CoreModule</text>
</g>
<!-- MenuEvent&#45;&gt;CoreModule -->
<g id="edge1" class="edge">
<title>MenuEvent&#45;&gt;CoreModule</title>
<path fill="none" stroke="#000000" d="M3622,-122.1532C3622,-145.7566 3622,-184 3622,-184 3622,-184 2106.6016,-184 2106.6016,-184"/>
<polygon fill="#000000" stroke="#000000" points="2106.6016,-180.5001 2096.6016,-184 2106.6016,-187.5001 2106.6016,-180.5001"/>
</g>
<!-- ApplicationInfoEvent -->
<g id="node2" class="node">
<title>ApplicationInfoEvent</title>
<ellipse fill="#fdb462" stroke="#000000" cx="3453" cy="-104" rx="95.4869" ry="18"/>
<text text-anchor="middle" x="3453" y="-99.8" font-family="Times,serif" font-size="14.00" fill="#000000">ApplicationInfoEvent</text>
</g>
<!-- ApplicationInfoEvent&#45;&gt;CoreModule -->
<g id="edge2" class="edge">
<title>ApplicationInfoEvent&#45;&gt;CoreModule</title>
<path fill="none" stroke="#000000" d="M3453,-122.2479C3453,-145.0179 3453,-181 3453,-181 3453,-181 2106.4344,-181 2106.4344,-181"/>
<polygon fill="#000000" stroke="#000000" points="2106.4344,-177.5001 2096.4344,-181 2106.4344,-184.5001 2106.4344,-177.5001"/>
</g>
<!-- EcranInfoEvent -->
<g id="node3" class="node">
<title>EcranInfoEvent</title>
<ellipse fill="#fdb462" stroke="#000000" cx="3268" cy="-104" rx="72.3322" ry="18"/>
<text text-anchor="middle" x="3268" y="-99.8" font-family="Times,serif" font-size="14.00" fill="#000000">EcranInfoEvent</text>
</g>
<!-- EcranInfoEvent&#45;&gt;CoreModule -->
<g id="edge3" class="edge">
<title>EcranInfoEvent&#45;&gt;CoreModule</title>
<path fill="none" stroke="#000000" d="M3268,-122.2921C3268,-144.2057 3268,-178 3268,-178 3268,-178 2106.6007,-178 2106.6007,-178"/>
<polygon fill="#000000" stroke="#000000" points="2106.6008,-174.5001 2096.6007,-178 2106.6007,-181.5001 2106.6008,-174.5001"/>
</g>
<!-- BaseService -->
<g id="node4" class="node">
<title>BaseService</title>
<ellipse fill="#fdb462" stroke="#000000" cx="3119" cy="-104" rx="58.5232" ry="18"/>
<text text-anchor="middle" x="3119" y="-99.8" font-family="Times,serif" font-size="14.00" fill="#000000">BaseService</text>
</g>
<!-- BaseService&#45;&gt;CoreModule -->
<g id="edge4" class="edge">
<title>BaseService&#45;&gt;CoreModule</title>
<path fill="none" stroke="#000000" d="M3119,-122.0267C3119,-142.7672 3119,-174 3119,-174 3119,-174 2106.4417,-174 2106.4417,-174"/>
<polygon fill="#000000" stroke="#000000" points="2106.4417,-170.5001 2096.4417,-174 2106.4417,-177.5001 2106.4417,-170.5001"/>
</g>
<!-- AuthInterceptor -->
<g id="node5" class="node">
<title>AuthInterceptor</title>
<ellipse fill="#fdb462" stroke="#000000" cx="2970" cy="-104" rx="72.9121" ry="18"/>
<text text-anchor="middle" x="2970" y="-99.8" font-family="Times,serif" font-size="14.00" fill="#000000">AuthInterceptor</text>
</g>
<!-- AuthInterceptor&#45;&gt;CoreModule -->
<g id="edge5" class="edge">
<title>AuthInterceptor&#45;&gt;CoreModule</title>
<path fill="none" stroke="#000000" d="M2994.2353,-121.2542C2994.2353,-141.1058 2994.2353,-171 2994.2353,-171 2994.2353,-171 2106.51,-171 2106.51,-171"/>
<polygon fill="#000000" stroke="#000000" points="2106.5101,-167.5001 2096.51,-171 2106.51,-174.5001 2106.5101,-167.5001"/>
</g>
<!-- AuthInterceptor&#45;&gt;CoreModule -->
<g id="edge17" class="edge">
<title>AuthInterceptor&#45;&gt;CoreModule</title>
<path fill="none" stroke="#000000" d="M2945.7647,-121.1508C2945.7647,-140.1084 2945.7647,-168 2945.7647,-168 2945.7647,-168 2106.3616,-168 2106.3616,-168"/>
<polygon fill="#000000" stroke="#000000" points="2106.3616,-164.5001 2096.3616,-168 2106.3616,-171.5001 2106.3616,-164.5001"/>
</g>
<!-- AuthGuardService -->
<g id="node6" class="node">
<title>AuthGuardService</title>
<ellipse fill="#fdb462" stroke="#000000" cx="2796" cy="-104" rx="83.3674" ry="18"/>
<text text-anchor="middle" x="2796" y="-99.8" font-family="Times,serif" font-size="14.00" fill="#000000">AuthGuardService</text>
</g>
<!-- AuthGuardService&#45;&gt;CoreModule -->
<g id="edge6" class="edge">
<title>AuthGuardService&#45;&gt;CoreModule</title>
<path fill="none" stroke="#000000" d="M2796,-122.302C2796,-140.2699 2796,-165 2796,-165 2796,-165 2106.4309,-165 2106.4309,-165"/>
<polygon fill="#000000" stroke="#000000" points="2106.4309,-161.5001 2096.4309,-165 2106.4308,-168.5001 2106.4309,-161.5001"/>
</g>
<!-- AuthService -->
<g id="node7" class="node">
<title>AuthService</title>
<ellipse fill="#fdb462" stroke="#000000" cx="2635" cy="-104" rx="59.1083" ry="18"/>
<text text-anchor="middle" x="2635" y="-99.8" font-family="Times,serif" font-size="14.00" fill="#000000">AuthService</text>
</g>
<!-- AuthService&#45;&gt;CoreModule -->
<g id="edge7" class="edge">
<title>AuthService&#45;&gt;CoreModule</title>
<path fill="none" stroke="#000000" d="M2635,-122.0352C2635,-138.7344 2635,-161 2635,-161 2635,-161 2106.2691,-161 2106.2691,-161"/>
<polygon fill="#000000" stroke="#000000" points="2106.2691,-157.5001 2096.2691,-161 2106.2691,-164.5001 2106.2691,-157.5001"/>
</g>
<!-- ExceptionService -->
<g id="node8" class="node">
<title>ExceptionService</title>
<ellipse fill="#fdb462" stroke="#000000" cx="2479" cy="-104" rx="79.2922" ry="18"/>
<text text-anchor="middle" x="2479" y="-99.8" font-family="Times,serif" font-size="14.00" fill="#000000">ExceptionService</text>
</g>
<!-- ExceptionService&#45;&gt;CoreModule -->
<g id="edge8" class="edge">
<title>ExceptionService&#45;&gt;CoreModule</title>
<path fill="none" stroke="#000000" d="M2479,-122.2819C2479,-137.9478 2479,-158 2479,-158 2479,-158 2106.5875,-158 2106.5875,-158"/>
<polygon fill="#000000" stroke="#000000" points="2106.5875,-154.5001 2096.5875,-158 2106.5875,-161.5001 2106.5875,-154.5001"/>
</g>
<!-- FooterService -->
<g id="node9" class="node">
<title>FooterService</title>
<ellipse fill="#fdb462" stroke="#000000" cx="2317" cy="-104" rx="65.4053" ry="18"/>
<text text-anchor="middle" x="2317" y="-99.8" font-family="Times,serif" font-size="14.00" fill="#000000">FooterService</text>
</g>
<!-- FooterService&#45;&gt;CoreModule -->
<g id="edge9" class="edge">
<title>FooterService&#45;&gt;CoreModule</title>
<path fill="none" stroke="#000000" d="M2317,-122.1243C2317,-136.7832 2317,-155 2317,-155 2317,-155 2106.2986,-155 2106.2986,-155"/>
<polygon fill="#000000" stroke="#000000" points="2106.2986,-151.5001 2096.2986,-155 2106.2986,-158.5001 2106.2986,-151.5001"/>
</g>
<!-- GooglePlacesService -->
<g id="node10" class="node">
<title>GooglePlacesService</title>
<ellipse fill="#fdb462" stroke="#000000" cx="2141" cy="-104" rx="93.1736" ry="18"/>
<text text-anchor="middle" x="2141" y="-99.8" font-family="Times,serif" font-size="14.00" fill="#000000">GooglePlacesService</text>
</g>
<!-- GooglePlacesService&#45;&gt;CoreModule -->
<g id="edge10" class="edge">
<title>GooglePlacesService&#45;&gt;CoreModule</title>
<path fill="none" stroke="#000000" d="M2072.147,-116.226C2072.147,-116.226 2072.147,-140.683 2072.147,-140.683"/>
<polygon fill="#000000" stroke="#000000" points="2068.6471,-140.683 2072.147,-150.683 2075.6471,-140.683 2068.6471,-140.683"/>
</g>
<!-- MixinService -->
<g id="node11" class="node">
<title>MixinService</title>
<ellipse fill="#fdb462" stroke="#000000" cx="1966" cy="-104" rx="63.7006" ry="18"/>
<text text-anchor="middle" x="1966" y="-99.8" font-family="Times,serif" font-size="14.00" fill="#000000">MixinService</text>
</g>
<!-- MixinService&#45;&gt;CoreModule -->
<g id="edge11" class="edge">
<title>MixinService&#45;&gt;CoreModule</title>
<path fill="none" stroke="#000000" d="M2019.6097,-113.8721C2019.6097,-113.8721 2019.6097,-140.9074 2019.6097,-140.9074"/>
<polygon fill="#000000" stroke="#000000" points="2016.1098,-140.9073 2019.6097,-150.9074 2023.1098,-140.9074 2016.1098,-140.9073"/>
</g>
<!-- ReferencesService -->
<g id="node12" class="node">
<title>ReferencesService</title>
<ellipse fill="#fdb462" stroke="#000000" cx="1802" cy="-104" rx="82.7589" ry="18"/>
<text text-anchor="middle" x="1802" y="-99.8" font-family="Times,serif" font-size="14.00" fill="#000000">ReferencesService</text>
</g>
<!-- ReferencesService&#45;&gt;CoreModule -->
<g id="edge12" class="edge">
<title>ReferencesService&#45;&gt;CoreModule</title>
<path fill="none" stroke="#000000" d="M1802,-122.1243C1802,-136.7832 1802,-155 1802,-155 1802,-155 1999.5657,-155 1999.5657,-155"/>
<polygon fill="#000000" stroke="#000000" points="1999.5657,-158.5001 2009.5657,-155 1999.5657,-151.5001 1999.5657,-158.5001"/>
</g>
<!-- ResourcesPythieService -->
<g id="node13" class="node">
<title>ResourcesPythieService</title>
<ellipse fill="#fdb462" stroke="#000000" cx="1597" cy="-104" rx="104.2091" ry="18"/>
<text text-anchor="middle" x="1597" y="-99.8" font-family="Times,serif" font-size="14.00" fill="#000000">ResourcesPythieService</text>
</g>
<!-- ResourcesPythieService&#45;&gt;CoreModule -->
<g id="edge13" class="edge">
<title>ResourcesPythieService&#45;&gt;CoreModule</title>
<path fill="none" stroke="#000000" d="M1597,-122.2819C1597,-137.9478 1597,-158 1597,-158 1597,-158 1999.6895,-158 1999.6895,-158"/>
<polygon fill="#000000" stroke="#000000" points="1999.6896,-161.5001 2009.6895,-158 1999.6895,-154.5001 1999.6896,-161.5001"/>
</g>
<!-- ResourcesAssuresService -->
<g id="node14" class="node">
<title>ResourcesAssuresService</title>
<ellipse fill="#fdb462" stroke="#000000" cx="1364" cy="-104" rx="110.4871" ry="18"/>
<text text-anchor="middle" x="1364" y="-99.8" font-family="Times,serif" font-size="14.00" fill="#000000">ResourcesAssuresService</text>
</g>
<!-- ResourcesAssuresService&#45;&gt;CoreModule -->
<g id="edge14" class="edge">
<title>ResourcesAssuresService&#45;&gt;CoreModule</title>
<path fill="none" stroke="#000000" d="M1364,-122.0352C1364,-138.7344 1364,-161 1364,-161 1364,-161 1999.639,-161 1999.639,-161"/>
<polygon fill="#000000" stroke="#000000" points="1999.639,-164.5001 2009.639,-161 1999.6389,-157.5001 1999.639,-164.5001"/>
</g>
<!-- ResourcesService -->
<g id="node15" class="node">
<title>ResourcesService</title>
<ellipse fill="#fdb462" stroke="#000000" cx="1156" cy="-104" rx="79.8507" ry="18"/>
<text text-anchor="middle" x="1156" y="-99.8" font-family="Times,serif" font-size="14.00" fill="#000000">ResourcesService</text>
</g>
<!-- ResourcesService&#45;&gt;CoreModule -->
<g id="edge15" class="edge">
<title>ResourcesService&#45;&gt;CoreModule</title>
<path fill="none" stroke="#000000" d="M1156,-122.302C1156,-140.2699 1156,-165 1156,-165 1156,-165 1999.7358,-165 1999.7358,-165"/>
<polygon fill="#000000" stroke="#000000" points="1999.7359,-168.5001 2009.7358,-165 1999.7358,-161.5001 1999.7359,-168.5001"/>
</g>
<!-- SettingsService -->
<g id="node16" class="node">
<title>SettingsService</title>
<ellipse fill="#fdb462" stroke="#000000" cx="987" cy="-104" rx="71.221" ry="18"/>
<text text-anchor="middle" x="987" y="-99.8" font-family="Times,serif" font-size="14.00" fill="#000000">SettingsService</text>
</g>
<!-- SettingsService&#45;&gt;CoreModule -->
<g id="edge16" class="edge">
<title>SettingsService&#45;&gt;CoreModule</title>
<path fill="none" stroke="#000000" d="M987,-122.1686C987,-141.0898 987,-168 987,-168 987,-168 1999.5583,-168 1999.5583,-168"/>
<polygon fill="#000000" stroke="#000000" points="1999.5583,-171.5001 2009.5583,-168 1999.5583,-164.5001 1999.5583,-171.5001"/>
</g>
<!-- GedService -->
<g id="node17" class="node">
<title>GedService</title>
<ellipse fill="#fdb462" stroke="#000000" cx="842" cy="-104" rx="56.157" ry="18"/>
<text text-anchor="middle" x="842" y="-99.8" font-family="Times,serif" font-size="14.00" fill="#000000">GedService</text>
</g>
<!-- GedService&#45;&gt;CoreModule -->
<g id="edge18" class="edge">
<title>GedService&#45;&gt;CoreModule</title>
<path fill="none" stroke="#000000" d="M842,-122.308C842,-142.1455 842,-171 842,-171 842,-171 1999.5428,-171 1999.5428,-171"/>
<polygon fill="#000000" stroke="#000000" points="1999.5429,-174.5001 2009.5428,-171 1999.5428,-167.5001 1999.5429,-174.5001"/>
</g>
<!-- XmlParserService -->
<g id="node18" class="node">
<title>XmlParserService</title>
<ellipse fill="#fdb462" stroke="#000000" cx="687" cy="-104" rx="81.0725" ry="18"/>
<text text-anchor="middle" x="687" y="-99.8" font-family="Times,serif" font-size="14.00" fill="#000000">XmlParserService</text>
</g>
<!-- XmlParserService&#45;&gt;CoreModule -->
<g id="edge19" class="edge">
<title>XmlParserService&#45;&gt;CoreModule</title>
<path fill="none" stroke="#000000" d="M687,-122.0267C687,-142.7672 687,-174 687,-174 687,-174 1999.4808,-174 1999.4808,-174"/>
<polygon fill="#000000" stroke="#000000" points="1999.4808,-177.5001 2009.4808,-174 1999.4808,-170.5001 1999.4808,-177.5001"/>
</g>
<!-- AutorisationService -->
<g id="node19" class="node">
<title>AutorisationService</title>
<ellipse fill="#fdb462" stroke="#000000" cx="499" cy="-104" rx="88.0384" ry="18"/>
<text text-anchor="middle" x="499" y="-99.8" font-family="Times,serif" font-size="14.00" fill="#000000">AutorisationService</text>
</g>
<!-- AutorisationService&#45;&gt;CoreModule -->
<g id="edge20" class="edge">
<title>AutorisationService&#45;&gt;CoreModule</title>
<path fill="none" stroke="#000000" d="M499,-122.2921C499,-144.2057 499,-178 499,-178 499,-178 1999.406,-178 1999.406,-178"/>
<polygon fill="#000000" stroke="#000000" points="1999.4061,-181.5001 2009.406,-178 1999.406,-174.5001 1999.4061,-181.5001"/>
</g>
<!-- ConstructionMenuService -->
<g id="node20" class="node">
<title>ConstructionMenuService</title>
<ellipse fill="#fdb462" stroke="#000000" cx="280" cy="-104" rx="112.3206" ry="18"/>
<text text-anchor="middle" x="280" y="-99.8" font-family="Times,serif" font-size="14.00" fill="#000000">ConstructionMenuService</text>
</g>
<!-- ConstructionMenuService&#45;&gt;CoreModule -->
<g id="edge21" class="edge">
<title>ConstructionMenuService&#45;&gt;CoreModule</title>
<path fill="none" stroke="#000000" d="M280,-122.2479C280,-145.0179 280,-181 280,-181 280,-181 1999.6131,-181 1999.6131,-181"/>
<polygon fill="#000000" stroke="#000000" points="1999.6131,-184.5001 2009.6131,-181 1999.613,-177.5001 1999.6131,-184.5001"/>
</g>
<!-- ListesService -->
<g id="node21" class="node">
<title>ListesService</title>
<ellipse fill="#fdb462" stroke="#000000" cx="87" cy="-104" rx="63.1131" ry="18"/>
<text text-anchor="middle" x="87" y="-99.8" font-family="Times,serif" font-size="14.00" fill="#000000">ListesService</text>
</g>
<!-- ListesService&#45;&gt;CoreModule -->
<g id="edge22" class="edge">
<title>ListesService&#45;&gt;CoreModule</title>
<path fill="none" stroke="#000000" d="M87,-122.1532C87,-145.7566 87,-184 87,-184 87,-184 1999.646,-184 1999.646,-184"/>
<polygon fill="#000000" stroke="#000000" points="1999.6461,-187.5001 2009.646,-184 1999.646,-180.5001 1999.6461,-187.5001"/>
</g>
</g>
</svg>
