<?xml version="1.0" encoding="UTF-8" standalone="no"?>
<!DOCTYPE svg PUBLIC "-//W3C//DTD SVG 1.1//EN"
 "http://www.w3.org/Graphics/SVG/1.1/DTD/svg11.dtd">
<!-- Generated by graphviz version 2.40.1 (20161225.0304)
 -->
<!-- Title: dependencies Pages: 1 -->
<svg width="1009pt" height="284pt"
 viewBox="0.00 0.00 1009.00 284.00" xmlns="http://www.w3.org/2000/svg" xmlns:xlink="http://www.w3.org/1999/xlink">
<g id="graph0" class="graph" transform="scale(1 1) rotate(0) translate(4 280)">
<title>dependencies</title>
<polygon fill="#ffffff" stroke="transparent" points="-4,4 -4,-280 1005,-280 1005,4 -4,4"/>
<text text-anchor="start" x="479.5091" y="-42.4" font-family="sans-serif" font-weight="bold" font-size="14.00" fill="#000000">Legend</text>
<polygon fill="#ffffb3" stroke="transparent" points="266.5,-10 266.5,-30 286.5,-30 286.5,-10 266.5,-10"/>
<text text-anchor="start" x="290.129" y="-15.4" font-family="sans-serif" font-size="14.00" fill="#000000"> &#160;Declarations</text>
<polygon fill="#8dd3c7" stroke="transparent" points="379.5,-10 379.5,-30 399.5,-30 399.5,-10 379.5,-10"/>
<text text-anchor="start" x="403.2251" y="-15.4" font-family="sans-serif" font-size="14.00" fill="#000000"> &#160;Module</text>
<polygon fill="#80b1d3" stroke="transparent" points="465.5,-10 465.5,-30 485.5,-30 485.5,-10 465.5,-10"/>
<text text-anchor="start" x="489.2812" y="-15.4" font-family="sans-serif" font-size="14.00" fill="#000000"> &#160;Bootstrap</text>
<polygon fill="#fdb462" stroke="transparent" points="562.5,-10 562.5,-30 582.5,-30 582.5,-10 562.5,-10"/>
<text text-anchor="start" x="586.1732" y="-15.4" font-family="sans-serif" font-size="14.00" fill="#000000"> &#160;Providers</text>
<polygon fill="#fb8072" stroke="transparent" points="658.5,-10 658.5,-30 678.5,-30 678.5,-10 658.5,-10"/>
<text text-anchor="start" x="682.2258" y="-15.4" font-family="sans-serif" font-size="14.00" fill="#000000"> &#160;Exports</text>
<g id="clust1" class="cluster">
<title>cluster_SharedModule</title>
<polygon fill="none" stroke="#000000" stroke-dasharray="1,5" points="8,-70 8,-268 993,-268 993,-70 8,-70"/>
</g>
<g id="clust2" class="cluster">
<title>cluster_SharedModule_declarations</title>
<polygon fill="none" stroke="#000000" points="29,-78 29,-130 973,-130 973,-78 29,-78"/>
</g>
<g id="clust11" class="cluster">
<title>cluster_SharedModule_exports</title>
<polygon fill="none" stroke="#000000" points="16,-208 16,-260 985,-260 985,-208 16,-208"/>
</g>
<!-- CapitalizePipe -->
<g id="node1" class="node">
<title>CapitalizePipe</title>
<polygon fill="#ffffb3" stroke="#000000" points="964.6458,-122 867.3542,-122 867.3542,-86 964.6458,-86 964.6458,-122"/>
<text text-anchor="middle" x="916" y="-99.8" font-family="Times,serif" font-size="14.00" fill="#000000">CapitalizePipe</text>
</g>
<!-- SharedModule -->
<g id="node8" class="node">
<title>SharedModule</title>
<polygon fill="#8dd3c7" stroke="#000000" points="564.4231,-187 561.4231,-191 540.4231,-191 537.4231,-187 465.5769,-187 465.5769,-151 564.4231,-151 564.4231,-187"/>
<text text-anchor="middle" x="515" y="-164.8" font-family="Times,serif" font-size="14.00" fill="#000000">SharedModule</text>
</g>
<!-- CapitalizePipe&#45;&gt;SharedModule -->
<g id="edge1" class="edge">
<title>CapitalizePipe&#45;&gt;SharedModule</title>
<path fill="none" stroke="#000000" d="M871.3024,-122.2222C871.3024,-140.8285 871.3024,-167 871.3024,-167 871.3024,-167 574.5423,-167 574.5423,-167"/>
<polygon fill="#000000" stroke="#000000" points="574.5424,-163.5001 564.5423,-167 574.5423,-170.5001 574.5424,-163.5001"/>
</g>
<!-- CapitalizeEachWordPipe -->
<g id="node2" class="node">
<title>CapitalizeEachWordPipe</title>
<polygon fill="#ffffb3" stroke="#000000" points="848.503,-122 691.497,-122 691.497,-86 848.503,-86 848.503,-122"/>
<text text-anchor="middle" x="770" y="-99.8" font-family="Times,serif" font-size="14.00" fill="#000000">CapitalizeEachWordPipe</text>
</g>
<!-- CapitalizeEachWordPipe&#45;&gt;SharedModule -->
<g id="edge2" class="edge">
<title>CapitalizeEachWordPipe&#45;&gt;SharedModule</title>
<path fill="none" stroke="#000000" d="M798.0004,-122.0336C798.0004,-139.0597 798.0004,-162 798.0004,-162 798.0004,-162 574.2949,-162 574.2949,-162"/>
<polygon fill="#000000" stroke="#000000" points="574.2949,-158.5001 564.2949,-162 574.2949,-165.5001 574.2949,-158.5001"/>
</g>
<!-- MinimizePipe -->
<g id="node3" class="node">
<title>MinimizePipe</title>
<polygon fill="#ffffb3" stroke="#000000" points="673.8246,-122 578.1754,-122 578.1754,-86 673.8246,-86 673.8246,-122"/>
<text text-anchor="middle" x="626" y="-99.8" font-family="Times,serif" font-size="14.00" fill="#000000">MinimizePipe</text>
</g>
<!-- MinimizePipe&#45;&gt;SharedModule -->
<g id="edge3" class="edge">
<title>MinimizePipe&#45;&gt;SharedModule</title>
<path fill="none" stroke="#000000" d="M642.304,-122.2396C642.304,-137.5706 642.304,-157 642.304,-157 642.304,-157 574.2191,-157 574.2191,-157"/>
<polygon fill="#000000" stroke="#000000" points="574.2191,-153.5001 564.2191,-157 574.219,-160.5001 574.2191,-153.5001"/>
</g>
<!-- TruncatePipe -->
<g id="node4" class="node">
<title>TruncatePipe</title>
<polygon fill="#ffffb3" stroke="#000000" points="560.1361,-122 469.8639,-122 469.8639,-86 560.1361,-86 560.1361,-122"/>
<text text-anchor="middle" x="515" y="-99.8" font-family="Times,serif" font-size="14.00" fill="#000000">TruncatePipe</text>
</g>
<!-- TruncatePipe&#45;&gt;SharedModule -->
<g id="edge4" class="edge">
<title>TruncatePipe&#45;&gt;SharedModule</title>
<path fill="none" stroke="#000000" d="M515,-122.1061C515,-122.1061 515,-140.991 515,-140.991"/>
<polygon fill="#000000" stroke="#000000" points="511.5001,-140.9909 515,-150.991 518.5001,-140.991 511.5001,-140.9909"/>
</g>
<!-- BreadcrumbComponent -->
<g id="node5" class="node">
<title>BreadcrumbComponent</title>
<polygon fill="#ffffb3" stroke="#000000" points="451.0253,-122 300.9747,-122 300.9747,-86 451.0253,-86 451.0253,-122"/>
<text text-anchor="middle" x="376" y="-99.8" font-family="Times,serif" font-size="14.00" fill="#000000">BreadcrumbComponent</text>
</g>
<!-- BreadcrumbComponent&#45;&gt;SharedModule -->
<g id="edge5" class="edge">
<title>BreadcrumbComponent&#45;&gt;SharedModule</title>
<path fill="none" stroke="#000000" d="M400.2541,-122.2396C400.2541,-137.5706 400.2541,-157 400.2541,-157 400.2541,-157 455.6715,-157 455.6715,-157"/>
<polygon fill="#000000" stroke="#000000" points="455.6715,-160.5001 465.6715,-157 455.6714,-153.5001 455.6715,-160.5001"/>
</g>
<!-- HeaderModalComponent -->
<g id="node6" class="node">
<title>HeaderModalComponent</title>
<polygon fill="#ffffb3" stroke="#000000" points="283.2935,-122 124.7065,-122 124.7065,-86 283.2935,-86 283.2935,-122"/>
<text text-anchor="middle" x="204" y="-99.8" font-family="Times,serif" font-size="14.00" fill="#000000">HeaderModalComponent</text>
</g>
<!-- HeaderModalComponent&#45;&gt;SharedModule -->
<g id="edge6" class="edge">
<title>HeaderModalComponent&#45;&gt;SharedModule</title>
<path fill="none" stroke="#000000" d="M226.8822,-122.0336C226.8822,-139.0597 226.8822,-162 226.8822,-162 226.8822,-162 455.4708,-162 455.4708,-162"/>
<polygon fill="#000000" stroke="#000000" points="455.4708,-165.5001 465.4708,-162 455.4707,-158.5001 455.4708,-165.5001"/>
</g>
<!-- SirenPipe -->
<g id="node7" class="node">
<title>SirenPipe</title>
<polygon fill="#ffffb3" stroke="#000000" points="107.4376,-122 36.5624,-122 36.5624,-86 107.4376,-86 107.4376,-122"/>
<text text-anchor="middle" x="72" y="-99.8" font-family="Times,serif" font-size="14.00" fill="#000000">SirenPipe</text>
</g>
<!-- SirenPipe&#45;&gt;SharedModule -->
<g id="edge7" class="edge">
<title>SirenPipe&#45;&gt;SharedModule</title>
<path fill="none" stroke="#000000" d="M102.5931,-122.2222C102.5931,-140.8285 102.5931,-167 102.5931,-167 102.5931,-167 455.6637,-167 455.6637,-167"/>
<polygon fill="#000000" stroke="#000000" points="455.6638,-170.5001 465.6637,-167 455.6637,-163.5001 455.6638,-170.5001"/>
</g>
<!-- CapitalizePipe  -->
<g id="node9" class="node">
<title>CapitalizePipe </title>
<polygon fill="#fb8072" stroke="#000000" points="976.6453,-252 875.3547,-252 875.3547,-216 976.6453,-216 976.6453,-252"/>
<text text-anchor="middle" x="926" y="-229.8" font-family="Times,serif" font-size="14.00" fill="#000000">CapitalizePipe </text>
</g>
<!-- SharedModule&#45;&gt;CapitalizePipe  -->
<g id="edge8" class="edge">
<title>SharedModule&#45;&gt;CapitalizePipe </title>
<path fill="none" stroke="#000000" stroke-dasharray="5,2" d="M564.2713,-172C672.2378,-172 920.125,-172 920.125,-172 920.125,-172 920.125,-205.7333 920.125,-205.7333"/>
<polygon fill="#000000" stroke="#000000" points="916.6251,-205.7333 920.125,-215.7333 923.6251,-205.7333 916.6251,-205.7333"/>
</g>
<!-- CapitalizeEachWordPipe  -->
<g id="node10" class="node">
<title>CapitalizeEachWordPipe </title>
<polygon fill="#fb8072" stroke="#000000" points="857.5022,-252 696.4978,-252 696.4978,-216 857.5022,-216 857.5022,-252"/>
<text text-anchor="middle" x="777" y="-229.8" font-family="Times,serif" font-size="14.00" fill="#000000">CapitalizeEachWordPipe </text>
</g>
<!-- SharedModule&#45;&gt;CapitalizeEachWordPipe  -->
<g id="edge9" class="edge">
<title>SharedModule&#45;&gt;CapitalizeEachWordPipe </title>
<path fill="none" stroke="#000000" stroke-dasharray="5,2" d="M564.2542,-177C632.429,-177 747.2496,-177 747.2496,-177 747.2496,-177 747.2496,-205.9648 747.2496,-205.9648"/>
<polygon fill="#000000" stroke="#000000" points="743.7497,-205.9648 747.2496,-215.9648 750.7497,-205.9649 743.7497,-205.9648"/>
</g>
<!-- MinimizePipe  -->
<g id="node11" class="node">
<title>MinimizePipe </title>
<polygon fill="#fb8072" stroke="#000000" points="678.3242,-252 579.6758,-252 579.6758,-216 678.3242,-216 678.3242,-252"/>
<text text-anchor="middle" x="629" y="-229.8" font-family="Times,serif" font-size="14.00" fill="#000000">MinimizePipe </text>
</g>
<!-- SharedModule&#45;&gt;MinimizePipe  -->
<g id="edge10" class="edge">
<title>SharedModule&#45;&gt;MinimizePipe </title>
<path fill="none" stroke="#000000" stroke-dasharray="5,2" d="M564.3783,-182C587.8873,-182 610.946,-182 610.946,-182 610.946,-182 610.946,-205.8129 610.946,-205.8129"/>
<polygon fill="#000000" stroke="#000000" points="607.4461,-205.8129 610.946,-215.8129 614.4461,-205.813 607.4461,-205.8129"/>
</g>
<!-- TruncatePipe  -->
<g id="node12" class="node">
<title>TruncatePipe </title>
<polygon fill="#fb8072" stroke="#000000" points="562.1355,-252 467.8645,-252 467.8645,-216 562.1355,-216 562.1355,-252"/>
<text text-anchor="middle" x="515" y="-229.8" font-family="Times,serif" font-size="14.00" fill="#000000">TruncatePipe </text>
</g>
<!-- SharedModule&#45;&gt;TruncatePipe  -->
<g id="edge11" class="edge">
<title>SharedModule&#45;&gt;TruncatePipe </title>
<path fill="none" stroke="#000000" stroke-dasharray="5,2" d="M515,-187.1061C515,-187.1061 515,-205.991 515,-205.991"/>
<polygon fill="#000000" stroke="#000000" points="511.5001,-205.9909 515,-215.991 518.5001,-205.991 511.5001,-205.9909"/>
</g>
<!-- BreadcrumbComponent  -->
<g id="node13" class="node">
<title>BreadcrumbComponent </title>
<polygon fill="#fb8072" stroke="#000000" points="450.0246,-252 295.9754,-252 295.9754,-216 450.0246,-216 450.0246,-252"/>
<text text-anchor="middle" x="373" y="-229.8" font-family="Times,serif" font-size="14.00" fill="#000000">BreadcrumbComponent </text>
</g>
<!-- SharedModule&#45;&gt;BreadcrumbComponent  -->
<g id="edge12" class="edge">
<title>SharedModule&#45;&gt;BreadcrumbComponent </title>
<path fill="none" stroke="#000000" stroke-dasharray="5,2" d="M465.6433,-182C417.1876,-182 350.4959,-182 350.4959,-182 350.4959,-182 350.4959,-205.8129 350.4959,-205.8129"/>
<polygon fill="#000000" stroke="#000000" points="346.996,-205.8129 350.4959,-215.8129 353.996,-205.813 346.996,-205.8129"/>
</g>
<!-- HeaderModalComponent  -->
<g id="node14" class="node">
<title>HeaderModalComponent </title>
<polygon fill="#fb8072" stroke="#000000" points="277.7933,-252 116.2067,-252 116.2067,-216 277.7933,-216 277.7933,-252"/>
<text text-anchor="middle" x="197" y="-229.8" font-family="Times,serif" font-size="14.00" fill="#000000">HeaderModalComponent </text>
</g>
<!-- SharedModule&#45;&gt;HeaderModalComponent  -->
<g id="edge13" class="edge">
<title>SharedModule&#45;&gt;HeaderModalComponent </title>
<path fill="none" stroke="#000000" stroke-dasharray="5,2" d="M465.6873,-177C371.6298,-177 175.8678,-177 175.8678,-177 175.8678,-177 175.8678,-205.9648 175.8678,-205.9648"/>
<polygon fill="#000000" stroke="#000000" points="172.3679,-205.9648 175.8678,-215.9648 179.3679,-205.9649 172.3679,-205.9648"/>
</g>
<!-- SirenPipe  -->
<g id="node15" class="node">
<title>SirenPipe </title>
<polygon fill="#fb8072" stroke="#000000" points="97.9362,-252 24.0638,-252 24.0638,-216 97.9362,-216 97.9362,-252"/>
<text text-anchor="middle" x="61" y="-229.8" font-family="Times,serif" font-size="14.00" fill="#000000">SirenPipe </text>
</g>
<!-- SharedModule&#45;&gt;SirenPipe  -->
<g id="edge14" class="edge">
<title>SharedModule&#45;&gt;SirenPipe </title>
<path fill="none" stroke="#000000" stroke-dasharray="5,2" d="M465.386,-172C348.8413,-172 67.375,-172 67.375,-172 67.375,-172 67.375,-205.7333 67.375,-205.7333"/>
<polygon fill="#000000" stroke="#000000" points="63.8751,-205.7333 67.375,-215.7333 70.8751,-205.7333 63.8751,-205.7333"/>
</g>
</g>
</svg>
