<?xml version="1.0" encoding="UTF-8" standalone="no"?>
<!DOCTYPE svg PUBLIC "-//W3C//DTD SVG 1.1//EN"
 "http://www.w3.org/Graphics/SVG/1.1/DTD/svg11.dtd">
<!-- Generated by graphviz version 2.40.1 (20161225.0304)
 -->
<!-- Title: dependencies Pages: 1 -->
<svg width="1320pt" height="211pt"
 viewBox="0.00 0.00 1320.00 211.00" xmlns="http://www.w3.org/2000/svg" xmlns:xlink="http://www.w3.org/1999/xlink">
<g id="graph0" class="graph" transform="scale(1 1) rotate(0) translate(4 207)">
<title>dependencies</title>
<polygon fill="#ffffff" stroke="transparent" points="-4,4 -4,-207 1316,-207 1316,4 -4,4"/>
<text text-anchor="start" x="635.0091" y="-42.4" font-family="sans-serif" font-weight="bold" font-size="14.00" fill="#000000">Legend</text>
<polygon fill="#ffffb3" stroke="transparent" points="422,-10 422,-30 442,-30 442,-10 422,-10"/>
<text text-anchor="start" x="445.629" y="-15.4" font-family="sans-serif" font-size="14.00" fill="#000000"> &#160;Declarations</text>
<polygon fill="#8dd3c7" stroke="transparent" points="535,-10 535,-30 555,-30 555,-10 535,-10"/>
<text text-anchor="start" x="558.7251" y="-15.4" font-family="sans-serif" font-size="14.00" fill="#000000"> &#160;Module</text>
<polygon fill="#80b1d3" stroke="transparent" points="621,-10 621,-30 641,-30 641,-10 621,-10"/>
<text text-anchor="start" x="644.7812" y="-15.4" font-family="sans-serif" font-size="14.00" fill="#000000"> &#160;Bootstrap</text>
<polygon fill="#fdb462" stroke="transparent" points="718,-10 718,-30 738,-30 738,-10 718,-10"/>
<text text-anchor="start" x="741.6732" y="-15.4" font-family="sans-serif" font-size="14.00" fill="#000000"> &#160;Providers</text>
<polygon fill="#fb8072" stroke="transparent" points="814,-10 814,-30 834,-30 834,-10 814,-10"/>
<text text-anchor="start" x="837.7258" y="-15.4" font-family="sans-serif" font-size="14.00" fill="#000000"> &#160;Exports</text>
<g id="clust1" class="cluster">
<title>cluster_AssuresModule</title>
<polygon fill="none" stroke="#000000" stroke-dasharray="1,5" points="8,-70 8,-195 1304,-195 1304,-70 8,-70"/>
</g>
<g id="clust2" class="cluster">
<title>cluster_AssuresModule_declarations</title>
<polygon fill="none" stroke="#000000" points="747,-78 747,-130 1296,-130 1296,-78 747,-78"/>
</g>
<g id="clust6" class="cluster">
<title>cluster_AssuresModule_imports</title>
<polygon fill="none" stroke="#000000" points="344,-78 344,-130 739,-130 739,-78 344,-78"/>
</g>
<g id="clust9" class="cluster">
<title>cluster_AssuresModule_providers</title>
<polygon fill="none" stroke="#000000" points="16,-78 16,-130 336,-130 336,-78 16,-78"/>
</g>
<!-- AssuresComponent -->
<g id="node1" class="node">
<title>AssuresComponent</title>
<polygon fill="#ffffb3" stroke="#000000" points="1287.6485,-122 1162.3515,-122 1162.3515,-86 1287.6485,-86 1287.6485,-122"/>
<text text-anchor="middle" x="1225" y="-99.8" font-family="Times,serif" font-size="14.00" fill="#000000">AssuresComponent</text>
</g>
<!-- AssuresModule -->
<g id="node4" class="node">
<title>AssuresModule</title>
<polygon fill="#8dd3c7" stroke="#000000" points="637.8655,-187 634.8655,-191 613.8655,-191 610.8655,-187 534.1345,-187 534.1345,-151 637.8655,-151 637.8655,-187"/>
<text text-anchor="middle" x="586" y="-164.8" font-family="Times,serif" font-size="14.00" fill="#000000">AssuresModule</text>
</g>
<!-- AssuresComponent&#45;&gt;AssuresModule -->
<g id="edge1" class="edge">
<title>AssuresComponent&#45;&gt;AssuresModule</title>
<path fill="none" stroke="#000000" d="M1225,-122.2921C1225,-144.2057 1225,-178 1225,-178 1225,-178 648.0211,-178 648.0211,-178"/>
<polygon fill="#000000" stroke="#000000" points="648.0212,-174.5001 638.0211,-178 648.0211,-181.5001 648.0212,-174.5001"/>
</g>
<!-- SearchAssureComponent -->
<g id="node2" class="node">
<title>SearchAssureComponent</title>
<polygon fill="#ffffb3" stroke="#000000" points="1144.2907,-122 985.7093,-122 985.7093,-86 1144.2907,-86 1144.2907,-122"/>
<text text-anchor="middle" x="1065" y="-99.8" font-family="Times,serif" font-size="14.00" fill="#000000">SearchAssureComponent</text>
</g>
<!-- SearchAssureComponent&#45;&gt;AssuresModule -->
<g id="edge2" class="edge">
<title>SearchAssureComponent&#45;&gt;AssuresModule</title>
<path fill="none" stroke="#000000" d="M1065,-122.1061C1065,-141.3391 1065,-169 1065,-169 1065,-169 648.1732,-169 648.1732,-169"/>
<polygon fill="#000000" stroke="#000000" points="648.1733,-165.5001 638.1732,-169 648.1732,-172.5001 648.1733,-165.5001"/>
</g>
<!-- ConditionsParticulieresComponent -->
<g id="node3" class="node">
<title>ConditionsParticulieresComponent</title>
<polygon fill="#ffffb3" stroke="#000000" points="967.2547,-122 754.7453,-122 754.7453,-86 967.2547,-86 967.2547,-122"/>
<text text-anchor="middle" x="861" y="-99.8" font-family="Times,serif" font-size="14.00" fill="#000000">ConditionsParticulieresComponent</text>
</g>
<!-- ConditionsParticulieresComponent&#45;&gt;AssuresModule -->
<g id="edge3" class="edge">
<title>ConditionsParticulieresComponent&#45;&gt;AssuresModule</title>
<path fill="none" stroke="#000000" d="M861,-122.027C861,-138.3976 861,-160 861,-160 861,-160 648.0487,-160 648.0487,-160"/>
<polygon fill="#000000" stroke="#000000" points="648.0487,-156.5001 638.0487,-160 648.0487,-163.5001 648.0487,-156.5001"/>
</g>
<!-- AssuresRoutingModule -->
<g id="node5" class="node">
<title>AssuresRoutingModule</title>
<polygon fill="#8dd3c7" stroke="#000000" points="731.4832,-122 728.4832,-126 707.4832,-126 704.4832,-122 582.5168,-122 582.5168,-86 731.4832,-86 731.4832,-122"/>
<text text-anchor="middle" x="657" y="-99.8" font-family="Times,serif" font-size="14.00" fill="#000000">AssuresRoutingModule</text>
</g>
<!-- AssuresRoutingModule&#45;&gt;AssuresModule -->
<g id="edge4" class="edge">
<title>AssuresRoutingModule&#45;&gt;AssuresModule</title>
<path fill="none" stroke="#000000" d="M610.2206,-122.1061C610.2206,-122.1061 610.2206,-140.991 610.2206,-140.991"/>
<polygon fill="#000000" stroke="#000000" points="606.7206,-140.9909 610.2206,-150.991 613.7206,-140.991 606.7206,-140.9909"/>
</g>
<!-- SharedModule -->
<g id="node6" class="node">
<title>SharedModule</title>
<polygon fill="#8dd3c7" stroke="#000000" points="564.4231,-122 561.4231,-126 540.4231,-126 537.4231,-122 465.5769,-122 465.5769,-86 564.4231,-86 564.4231,-122"/>
<text text-anchor="middle" x="515" y="-99.8" font-family="Times,serif" font-size="14.00" fill="#000000">SharedModule</text>
</g>
<!-- SharedModule&#45;&gt;AssuresModule -->
<g id="edge5" class="edge">
<title>SharedModule&#45;&gt;AssuresModule</title>
<path fill="none" stroke="#000000" d="M549.1392,-122.1061C549.1392,-122.1061 549.1392,-140.991 549.1392,-140.991"/>
<polygon fill="#000000" stroke="#000000" points="545.6393,-140.9909 549.1392,-150.991 552.6393,-140.991 545.6393,-140.9909"/>
</g>
<!-- PythieModule -->
<g id="node7" class="node">
<title>PythieModule</title>
<polygon fill="#8dd3c7" stroke="#000000" points="447.8288,-122 444.8288,-126 423.8288,-126 420.8288,-122 352.1712,-122 352.1712,-86 447.8288,-86 447.8288,-122"/>
<text text-anchor="middle" x="400" y="-99.8" font-family="Times,serif" font-size="14.00" fill="#000000">PythieModule</text>
</g>
<!-- PythieModule&#45;&gt;AssuresModule -->
<g id="edge6" class="edge">
<title>PythieModule&#45;&gt;AssuresModule</title>
<path fill="none" stroke="#000000" d="M400,-122.027C400,-138.3976 400,-160 400,-160 400,-160 523.6937,-160 523.6937,-160"/>
<polygon fill="#000000" stroke="#000000" points="523.6937,-163.5001 533.6937,-160 523.6936,-156.5001 523.6937,-163.5001"/>
</g>
<!-- AssuresService -->
<g id="node8" class="node">
<title>AssuresService</title>
<ellipse fill="#fdb462" stroke="#000000" cx="257" cy="-104" rx="70.62" ry="18"/>
<text text-anchor="middle" x="257" y="-99.8" font-family="Times,serif" font-size="14.00" fill="#000000">AssuresService</text>
</g>
<!-- AssuresService&#45;&gt;AssuresModule -->
<g id="edge7" class="edge">
<title>AssuresService&#45;&gt;AssuresModule</title>
<path fill="none" stroke="#000000" d="M257,-122.1061C257,-141.3391 257,-169 257,-169 257,-169 523.869,-169 523.869,-169"/>
<polygon fill="#000000" stroke="#000000" points="523.869,-172.5001 533.869,-169 523.8689,-165.5001 523.869,-172.5001"/>
</g>
<!-- SocietesService -->
<g id="node9" class="node">
<title>SocietesService</title>
<ellipse fill="#fdb462" stroke="#000000" cx="96" cy="-104" rx="72.3439" ry="18"/>
<text text-anchor="middle" x="96" y="-99.8" font-family="Times,serif" font-size="14.00" fill="#000000">SocietesService</text>
</g>
<!-- SocietesService&#45;&gt;AssuresModule -->
<g id="edge8" class="edge">
<title>SocietesService&#45;&gt;AssuresModule</title>
<path fill="none" stroke="#000000" d="M96,-122.2921C96,-144.2057 96,-178 96,-178 96,-178 524.0253,-178 524.0253,-178"/>
<polygon fill="#000000" stroke="#000000" points="524.0253,-181.5001 534.0253,-178 524.0253,-174.5001 524.0253,-181.5001"/>
</g>
</g>
</svg>
