<?xml version="1.0" encoding="UTF-8" standalone="no"?>
<!DOCTYPE svg PUBLIC "-//W3C//DTD SVG 1.1//EN"
 "http://www.w3.org/Graphics/SVG/1.1/DTD/svg11.dtd">
<!-- Generated by graphviz version 2.40.1 (20161225.0304)
 -->
<!-- Title: dependencies Pages: 1 -->
<svg width="1711pt" height="284pt"
 viewBox="0.00 0.00 1711.00 284.00" xmlns="http://www.w3.org/2000/svg" xmlns:xlink="http://www.w3.org/1999/xlink">
<g id="graph0" class="graph" transform="scale(1 1) rotate(0) translate(4 280)">
<title>dependencies</title>
<polygon fill="#ffffff" stroke="transparent" points="-4,4 -4,-280 1707,-280 1707,4 -4,4"/>
<text text-anchor="start" x="830.5091" y="-42.4" font-family="sans-serif" font-weight="bold" font-size="14.00" fill="#000000">Legend</text>
<polygon fill="#ffffb3" stroke="transparent" points="617.5,-10 617.5,-30 637.5,-30 637.5,-10 617.5,-10"/>
<text text-anchor="start" x="641.129" y="-15.4" font-family="sans-serif" font-size="14.00" fill="#000000"> &#160;Declarations</text>
<polygon fill="#8dd3c7" stroke="transparent" points="730.5,-10 730.5,-30 750.5,-30 750.5,-10 730.5,-10"/>
<text text-anchor="start" x="754.2251" y="-15.4" font-family="sans-serif" font-size="14.00" fill="#000000"> &#160;Module</text>
<polygon fill="#80b1d3" stroke="transparent" points="816.5,-10 816.5,-30 836.5,-30 836.5,-10 816.5,-10"/>
<text text-anchor="start" x="840.2812" y="-15.4" font-family="sans-serif" font-size="14.00" fill="#000000"> &#160;Bootstrap</text>
<polygon fill="#fdb462" stroke="transparent" points="913.5,-10 913.5,-30 933.5,-30 933.5,-10 913.5,-10"/>
<text text-anchor="start" x="937.1732" y="-15.4" font-family="sans-serif" font-size="14.00" fill="#000000"> &#160;Providers</text>
<polygon fill="#fb8072" stroke="transparent" points="1009.5,-10 1009.5,-30 1029.5,-30 1029.5,-10 1009.5,-10"/>
<text text-anchor="start" x="1033.2258" y="-15.4" font-family="sans-serif" font-size="14.00" fill="#000000"> &#160;Exports</text>
<g id="clust1" class="cluster">
<title>cluster_PythieModule</title>
<polygon fill="none" stroke="#000000" stroke-dasharray="1,5" points="8,-70 8,-268 1695,-268 1695,-70 8,-70"/>
</g>
<g id="clust2" class="cluster">
<title>cluster_PythieModule_declarations</title>
<polygon fill="none" stroke="#000000" points="450,-78 450,-130 1687,-130 1687,-78 450,-78"/>
</g>
<g id="clust8" class="cluster">
<title>cluster_PythieModule_imports</title>
<polygon fill="none" stroke="#000000" points="170,-78 170,-130 442,-130 442,-78 170,-78"/>
</g>
<g id="clust9" class="cluster">
<title>cluster_PythieModule_exports</title>
<polygon fill="none" stroke="#000000" points="358,-208 358,-260 1164,-260 1164,-208 358,-208"/>
</g>
<g id="clust11" class="cluster">
<title>cluster_PythieModule_providers</title>
<polygon fill="none" stroke="#000000" points="16,-78 16,-130 162,-130 162,-78 16,-78"/>
</g>
<!-- PythieComponent -->
<g id="node1" class="node">
<title>PythieComponent</title>
<polygon fill="#ffffb3" stroke="#000000" points="1678.6109,-122 1561.3891,-122 1561.3891,-86 1678.6109,-86 1678.6109,-122"/>
<text text-anchor="middle" x="1620" y="-99.8" font-family="Times,serif" font-size="14.00" fill="#000000">PythieComponent</text>
</g>
<!-- PythieModule -->
<g id="node6" class="node">
<title>PythieModule</title>
<polygon fill="#8dd3c7" stroke="#000000" points="794.8288,-187 791.8288,-191 770.8288,-191 767.8288,-187 699.1712,-187 699.1712,-151 794.8288,-151 794.8288,-187"/>
<text text-anchor="middle" x="747" y="-164.8" font-family="Times,serif" font-size="14.00" fill="#000000">PythieModule</text>
</g>
<!-- PythieComponent&#45;&gt;PythieModule -->
<g id="edge1" class="edge">
<title>PythieComponent&#45;&gt;PythieModule</title>
<path fill="none" stroke="#000000" d="M1620,-122.1289C1620,-142.5724 1620,-173 1620,-173 1620,-173 804.8676,-173 804.8676,-173"/>
<polygon fill="#000000" stroke="#000000" points="804.8676,-169.5001 794.8676,-173 804.8675,-176.5001 804.8676,-169.5001"/>
</g>
<!-- ConditionsParticulieresInformationsComponent -->
<g id="node2" class="node">
<title>ConditionsParticulieresInformationsComponent</title>
<polygon fill="#ffffb3" stroke="#000000" points="1543.5674,-122 1258.4326,-122 1258.4326,-86 1543.5674,-86 1543.5674,-122"/>
<text text-anchor="middle" x="1401" y="-99.8" font-family="Times,serif" font-size="14.00" fill="#000000">ConditionsParticulieresInformationsComponent</text>
</g>
<!-- ConditionsParticulieresInformationsComponent&#45;&gt;PythieModule -->
<g id="edge2" class="edge">
<title>ConditionsParticulieresInformationsComponent&#45;&gt;PythieModule</title>
<path fill="none" stroke="#000000" d="M1401,-122.2667C1401,-140.5552 1401,-166 1401,-166 1401,-166 804.8252,-166 804.8252,-166"/>
<polygon fill="#000000" stroke="#000000" points="804.8252,-162.5001 794.8252,-166 804.8252,-169.5001 804.8252,-162.5001"/>
</g>
<!-- ModalListesStructureComponent -->
<g id="node3" class="node">
<title>ModalListesStructureComponent</title>
<polygon fill="#ffffb3" stroke="#000000" points="1240.1343,-122 1037.8657,-122 1037.8657,-86 1240.1343,-86 1240.1343,-122"/>
<text text-anchor="middle" x="1139" y="-99.8" font-family="Times,serif" font-size="14.00" fill="#000000">ModalListesStructureComponent</text>
</g>
<!-- ModalListesStructureComponent&#45;&gt;PythieModule -->
<g id="edge3" class="edge">
<title>ModalListesStructureComponent&#45;&gt;PythieModule</title>
<path fill="none" stroke="#000000" d="M1096.9834,-122.0091C1096.9834,-138.0494 1096.9834,-159 1096.9834,-159 1096.9834,-159 804.9299,-159 804.9299,-159"/>
<polygon fill="#000000" stroke="#000000" points="804.9299,-155.5001 794.9299,-159 804.9298,-162.5001 804.9299,-155.5001"/>
</g>
<!-- ConditionsParticulieresActionsComponent -->
<g id="node4" class="node">
<title>ConditionsParticulieresActionsComponent</title>
<polygon fill="#ffffb3" stroke="#000000" points="1020.3018,-122 763.6982,-122 763.6982,-86 1020.3018,-86 1020.3018,-122"/>
<text text-anchor="middle" x="892" y="-99.8" font-family="Times,serif" font-size="14.00" fill="#000000">ConditionsParticulieresActionsComponent</text>
</g>
<!-- ConditionsParticulieresActionsComponent&#45;&gt;PythieModule -->
<g id="edge4" class="edge">
<title>ConditionsParticulieresActionsComponent&#45;&gt;PythieModule</title>
<path fill="none" stroke="#000000" d="M779.2567,-122.1061C779.2567,-122.1061 779.2567,-140.991 779.2567,-140.991"/>
<polygon fill="#000000" stroke="#000000" points="775.7567,-140.9909 779.2567,-150.991 782.7567,-140.991 775.7567,-140.9909"/>
</g>
<!-- ConditionsParticulieresMotifsActionComponent -->
<g id="node5" class="node">
<title>ConditionsParticulieresMotifsActionComponent</title>
<polygon fill="#ffffb3" stroke="#000000" points="746.1881,-122 457.8119,-122 457.8119,-86 746.1881,-86 746.1881,-122"/>
<text text-anchor="middle" x="602" y="-99.8" font-family="Times,serif" font-size="14.00" fill="#000000">ConditionsParticulieresMotifsActionComponent</text>
</g>
<!-- ConditionsParticulieresMotifsActionComponent&#45;&gt;PythieModule -->
<g id="edge5" class="edge">
<title>ConditionsParticulieresMotifsActionComponent&#45;&gt;PythieModule</title>
<path fill="none" stroke="#000000" d="M722.715,-122.1061C722.715,-122.1061 722.715,-140.991 722.715,-140.991"/>
<polygon fill="#000000" stroke="#000000" points="719.215,-140.9909 722.715,-150.991 726.215,-140.991 719.215,-140.9909"/>
</g>
<!-- ConditionsParticulieresInformationsComponent  -->
<g id="node9" class="node">
<title>ConditionsParticulieresInformationsComponent </title>
<polygon fill="#fb8072" stroke="#000000" points="1156.0677,-252 867.9323,-252 867.9323,-216 1156.0677,-216 1156.0677,-252"/>
<text text-anchor="middle" x="1012" y="-229.8" font-family="Times,serif" font-size="14.00" fill="#000000">ConditionsParticulieresInformationsComponent </text>
</g>
<!-- PythieModule&#45;&gt;ConditionsParticulieresInformationsComponent  -->
<g id="edge8" class="edge">
<title>PythieModule&#45;&gt;ConditionsParticulieresInformationsComponent </title>
<path fill="none" stroke="#000000" stroke-dasharray="5,2" d="M794.6721,-180C852.9552,-180 943.9336,-180 943.9336,-180 943.9336,-180 943.9336,-205.7181 943.9336,-205.7181"/>
<polygon fill="#000000" stroke="#000000" points="940.4336,-205.718 943.9336,-215.7181 947.4336,-205.7181 940.4336,-205.718"/>
</g>
<!-- ModalListesStructureComponent  -->
<g id="node10" class="node">
<title>ModalListesStructureComponent </title>
<polygon fill="#fb8072" stroke="#000000" points="850.134,-252 643.866,-252 643.866,-216 850.134,-216 850.134,-252"/>
<text text-anchor="middle" x="747" y="-229.8" font-family="Times,serif" font-size="14.00" fill="#000000">ModalListesStructureComponent </text>
</g>
<!-- PythieModule&#45;&gt;ModalListesStructureComponent  -->
<g id="edge9" class="edge">
<title>PythieModule&#45;&gt;ModalListesStructureComponent </title>
<path fill="none" stroke="#000000" stroke-dasharray="5,2" d="M747,-187.1061C747,-187.1061 747,-205.991 747,-205.991"/>
<polygon fill="#000000" stroke="#000000" points="743.5001,-205.9909 747,-215.991 750.5001,-205.991 743.5001,-205.9909"/>
</g>
<!-- ConditionsParticulieresActionsComponent  -->
<g id="node11" class="node">
<title>ConditionsParticulieresActionsComponent </title>
<polygon fill="#fb8072" stroke="#000000" points="625.8017,-252 366.1983,-252 366.1983,-216 625.8017,-216 625.8017,-252"/>
<text text-anchor="middle" x="496" y="-229.8" font-family="Times,serif" font-size="14.00" fill="#000000">ConditionsParticulieresActionsComponent </text>
</g>
<!-- PythieModule&#45;&gt;ConditionsParticulieresActionsComponent  -->
<g id="edge10" class="edge">
<title>PythieModule&#45;&gt;ConditionsParticulieresActionsComponent </title>
<path fill="none" stroke="#000000" stroke-dasharray="5,2" d="M699.1728,-180C638.5684,-180 541.9034,-180 541.9034,-180 541.9034,-180 541.9034,-205.7181 541.9034,-205.7181"/>
<polygon fill="#000000" stroke="#000000" points="538.4035,-205.718 541.9034,-215.7181 545.4035,-205.7181 538.4035,-205.718"/>
</g>
<!-- PythieRoutingModule -->
<g id="node7" class="node">
<title>PythieRoutingModule</title>
<polygon fill="#8dd3c7" stroke="#000000" points="434.4467,-122 431.4467,-126 410.4467,-126 407.4467,-122 293.5533,-122 293.5533,-86 434.4467,-86 434.4467,-122"/>
<text text-anchor="middle" x="364" y="-99.8" font-family="Times,serif" font-size="14.00" fill="#000000">PythieRoutingModule</text>
</g>
<!-- PythieRoutingModule&#45;&gt;PythieModule -->
<g id="edge6" class="edge">
<title>PythieRoutingModule&#45;&gt;PythieModule</title>
<path fill="none" stroke="#000000" d="M400.1611,-122.0091C400.1611,-138.0494 400.1611,-159 400.1611,-159 400.1611,-159 689.1377,-159 689.1377,-159"/>
<polygon fill="#000000" stroke="#000000" points="689.1377,-162.5001 699.1377,-159 689.1376,-155.5001 689.1377,-162.5001"/>
</g>
<!-- SharedModule -->
<g id="node8" class="node">
<title>SharedModule</title>
<polygon fill="#8dd3c7" stroke="#000000" points="276.4231,-122 273.4231,-126 252.4231,-126 249.4231,-122 177.5769,-122 177.5769,-86 276.4231,-86 276.4231,-122"/>
<text text-anchor="middle" x="227" y="-99.8" font-family="Times,serif" font-size="14.00" fill="#000000">SharedModule</text>
</g>
<!-- SharedModule&#45;&gt;PythieModule -->
<g id="edge7" class="edge">
<title>SharedModule&#45;&gt;PythieModule</title>
<path fill="none" stroke="#000000" d="M227,-122.2667C227,-140.5552 227,-166 227,-166 227,-166 689.0117,-166 689.0117,-166"/>
<polygon fill="#000000" stroke="#000000" points="689.0118,-169.5001 699.0117,-166 689.0117,-162.5001 689.0118,-169.5001"/>
</g>
<!-- PythieService -->
<g id="node12" class="node">
<title>PythieService</title>
<ellipse fill="#fdb462" stroke="#000000" cx="89" cy="-104" rx="64.8428" ry="18"/>
<text text-anchor="middle" x="89" y="-99.8" font-family="Times,serif" font-size="14.00" fill="#000000">PythieService</text>
</g>
<!-- PythieService&#45;&gt;PythieModule -->
<g id="edge11" class="edge">
<title>PythieService&#45;&gt;PythieModule</title>
<path fill="none" stroke="#000000" d="M89,-122.1289C89,-142.5724 89,-173 89,-173 89,-173 689.1482,-173 689.1482,-173"/>
<polygon fill="#000000" stroke="#000000" points="689.1483,-176.5001 699.1482,-173 689.1482,-169.5001 689.1483,-176.5001"/>
</g>
</g>
</svg>
