<?xml version="1.0" encoding="UTF-8" standalone="no"?>
<!DOCTYPE svg PUBLIC "-//W3C//DTD SVG 1.1//EN"
 "http://www.w3.org/Graphics/SVG/1.1/DTD/svg11.dtd">
<!-- Generated by graphviz version 2.40.1 (20161225.0304)
 -->
<!-- Title: dependencies Pages: 1 -->
<svg width="1573pt" height="284pt"
 viewBox="0.00 0.00 1573.00 284.00" xmlns="http://www.w3.org/2000/svg" xmlns:xlink="http://www.w3.org/1999/xlink">
<g id="graph0" class="graph" transform="scale(1 1) rotate(0) translate(4 280)">
<title>dependencies</title>
<polygon fill="#ffffff" stroke="transparent" points="-4,4 -4,-280 1569,-280 1569,4 -4,4"/>
<text text-anchor="start" x="761.5091" y="-42.4" font-family="sans-serif" font-weight="bold" font-size="14.00" fill="#000000">Legend</text>
<polygon fill="#ffffb3" stroke="transparent" points="548.5,-10 548.5,-30 568.5,-30 568.5,-10 548.5,-10"/>
<text text-anchor="start" x="572.129" y="-15.4" font-family="sans-serif" font-size="14.00" fill="#000000"> &#160;Declarations</text>
<polygon fill="#8dd3c7" stroke="transparent" points="661.5,-10 661.5,-30 681.5,-30 681.5,-10 661.5,-10"/>
<text text-anchor="start" x="685.2251" y="-15.4" font-family="sans-serif" font-size="14.00" fill="#000000"> &#160;Module</text>
<polygon fill="#80b1d3" stroke="transparent" points="747.5,-10 747.5,-30 767.5,-30 767.5,-10 747.5,-10"/>
<text text-anchor="start" x="771.2812" y="-15.4" font-family="sans-serif" font-size="14.00" fill="#000000"> &#160;Bootstrap</text>
<polygon fill="#fdb462" stroke="transparent" points="844.5,-10 844.5,-30 864.5,-30 864.5,-10 844.5,-10"/>
<text text-anchor="start" x="868.1732" y="-15.4" font-family="sans-serif" font-size="14.00" fill="#000000"> &#160;Providers</text>
<polygon fill="#fb8072" stroke="transparent" points="940.5,-10 940.5,-30 960.5,-30 960.5,-10 940.5,-10"/>
<text text-anchor="start" x="964.2258" y="-15.4" font-family="sans-serif" font-size="14.00" fill="#000000"> &#160;Exports</text>
<g id="clust1" class="cluster">
<title>cluster_AppModule</title>
<polygon fill="none" stroke="#000000" stroke-dasharray="1,5" points="8,-70 8,-268 1557,-268 1557,-70 8,-70"/>
</g>
<g id="clust2" class="cluster">
<title>cluster_AppModule_declarations</title>
<polygon fill="none" stroke="#000000" points="390,-78 390,-130 1549,-130 1549,-78 390,-78"/>
</g>
<g id="clust10" class="cluster">
<title>cluster_AppModule_imports</title>
<polygon fill="none" stroke="#000000" points="16,-78 16,-130 382,-130 382,-78 16,-78"/>
</g>
<g id="clust12" class="cluster">
<title>cluster_AppModule_bootstrap</title>
<polygon fill="none" stroke="#000000" points="715,-208 715,-260 839,-260 839,-208 715,-208"/>
</g>
<!-- AppComponent -->
<g id="node1" class="node">
<title>AppComponent</title>
<polygon fill="#ffffb3" stroke="#000000" points="1540.9399,-122 1435.0601,-122 1435.0601,-86 1540.9399,-86 1540.9399,-122"/>
<text text-anchor="middle" x="1488" y="-99.8" font-family="Times,serif" font-size="14.00" fill="#000000">AppComponent</text>
</g>
<!-- AppModule -->
<g id="node8" class="node">
<title>AppModule</title>
<polygon fill="#8dd3c7" stroke="#000000" points="818.6571,-187 815.6571,-191 794.6571,-191 791.6571,-187 735.3429,-187 735.3429,-151 818.6571,-151 818.6571,-187"/>
<text text-anchor="middle" x="777" y="-164.8" font-family="Times,serif" font-size="14.00" fill="#000000">AppModule</text>
</g>
<!-- AppComponent&#45;&gt;AppModule -->
<g id="edge1" class="edge">
<title>AppComponent&#45;&gt;AppModule</title>
<path fill="none" stroke="#000000" d="M1488,-122.0109C1488,-144.4852 1488,-180 1488,-180 1488,-180 828.8219,-180 828.8219,-180"/>
<polygon fill="#000000" stroke="#000000" points="828.8219,-176.5001 818.8219,-180 828.8218,-183.5001 828.8219,-176.5001"/>
</g>
<!-- MenuNavigationComponent -->
<g id="node2" class="node">
<title>MenuNavigationComponent</title>
<polygon fill="#ffffb3" stroke="#000000" points="1417.1993,-122 1240.8007,-122 1240.8007,-86 1417.1993,-86 1417.1993,-122"/>
<text text-anchor="middle" x="1329" y="-99.8" font-family="Times,serif" font-size="14.00" fill="#000000">MenuNavigationComponent</text>
</g>
<!-- MenuNavigationComponent&#45;&gt;AppModule -->
<g id="edge2" class="edge">
<title>MenuNavigationComponent&#45;&gt;AppModule</title>
<path fill="none" stroke="#000000" d="M1329,-122.1289C1329,-142.5724 1329,-173 1329,-173 1329,-173 828.9428,-173 828.9428,-173"/>
<polygon fill="#000000" stroke="#000000" points="828.9428,-169.5001 818.9428,-173 828.9428,-176.5001 828.9428,-169.5001"/>
</g>
<!-- HomeComponent -->
<g id="node3" class="node">
<title>HomeComponent</title>
<polygon fill="#ffffb3" stroke="#000000" points="1222.5451,-122 1107.4549,-122 1107.4549,-86 1222.5451,-86 1222.5451,-122"/>
<text text-anchor="middle" x="1165" y="-99.8" font-family="Times,serif" font-size="14.00" fill="#000000">HomeComponent</text>
</g>
<!-- HomeComponent&#45;&gt;AppModule -->
<g id="edge3" class="edge">
<title>HomeComponent&#45;&gt;AppModule</title>
<path fill="none" stroke="#000000" d="M1165,-122.2667C1165,-140.5552 1165,-166 1165,-166 1165,-166 828.8914,-166 828.8914,-166"/>
<polygon fill="#000000" stroke="#000000" points="828.8915,-162.5001 818.8914,-166 828.8914,-169.5001 828.8915,-162.5001"/>
</g>
<!-- LoginComponent -->
<g id="node4" class="node">
<title>LoginComponent</title>
<polygon fill="#ffffb3" stroke="#000000" points="1089.2758,-122 974.7242,-122 974.7242,-86 1089.2758,-86 1089.2758,-122"/>
<text text-anchor="middle" x="1032" y="-99.8" font-family="Times,serif" font-size="14.00" fill="#000000">LoginComponent</text>
</g>
<!-- LoginComponent&#45;&gt;AppModule -->
<g id="edge4" class="edge">
<title>LoginComponent&#45;&gt;AppModule</title>
<path fill="none" stroke="#000000" d="M1032,-122.0091C1032,-138.0494 1032,-159 1032,-159 1032,-159 828.8225,-159 828.8225,-159"/>
<polygon fill="#000000" stroke="#000000" points="828.8226,-155.5001 818.8225,-159 828.8225,-162.5001 828.8226,-155.5001"/>
</g>
<!-- ModalMessageComponent -->
<g id="node5" class="node">
<title>ModalMessageComponent</title>
<polygon fill="#ffffb3" stroke="#000000" points="956.3599,-122 789.6401,-122 789.6401,-86 956.3599,-86 956.3599,-122"/>
<text text-anchor="middle" x="873" y="-99.8" font-family="Times,serif" font-size="14.00" fill="#000000">ModalMessageComponent</text>
</g>
<!-- ModalMessageComponent&#45;&gt;AppModule -->
<g id="edge5" class="edge">
<title>ModalMessageComponent&#45;&gt;AppModule</title>
<path fill="none" stroke="#000000" d="M804.1992,-122.1061C804.1992,-122.1061 804.1992,-140.991 804.1992,-140.991"/>
<polygon fill="#000000" stroke="#000000" points="800.6992,-140.9909 804.1992,-150.991 807.6992,-140.991 800.6992,-140.9909"/>
</g>
<!-- ModalListePiecesComponent -->
<g id="node6" class="node">
<title>ModalListePiecesComponent</title>
<polygon fill="#ffffb3" stroke="#000000" points="771.6372,-122 590.3628,-122 590.3628,-86 771.6372,-86 771.6372,-122"/>
<text text-anchor="middle" x="681" y="-99.8" font-family="Times,serif" font-size="14.00" fill="#000000">ModalListePiecesComponent</text>
</g>
<!-- ModalListePiecesComponent&#45;&gt;AppModule -->
<g id="edge6" class="edge">
<title>ModalListePiecesComponent&#45;&gt;AppModule</title>
<path fill="none" stroke="#000000" d="M753.4951,-122.1061C753.4951,-122.1061 753.4951,-140.991 753.4951,-140.991"/>
<polygon fill="#000000" stroke="#000000" points="749.9952,-140.9909 753.4951,-150.991 756.9952,-140.991 749.9952,-140.9909"/>
</g>
<!-- ModalPlusDinfoComponent -->
<g id="node7" class="node">
<title>ModalPlusDinfoComponent</title>
<polygon fill="#ffffb3" stroke="#000000" points="572.1581,-122 397.8419,-122 397.8419,-86 572.1581,-86 572.1581,-122"/>
<text text-anchor="middle" x="485" y="-99.8" font-family="Times,serif" font-size="14.00" fill="#000000">ModalPlusDinfoComponent</text>
</g>
<!-- ModalPlusDinfoComponent&#45;&gt;AppModule -->
<g id="edge7" class="edge">
<title>ModalPlusDinfoComponent&#45;&gt;AppModule</title>
<path fill="none" stroke="#000000" d="M485,-122.0091C485,-138.0494 485,-159 485,-159 485,-159 725.1635,-159 725.1635,-159"/>
<polygon fill="#000000" stroke="#000000" points="725.1636,-162.5001 735.1635,-159 725.1635,-155.5001 725.1636,-162.5001"/>
</g>
<!-- AppComponent  -->
<g id="node12" class="node">
<title>AppComponent </title>
<polygon fill="#80b1d3" stroke="#000000" points="831.439,-252 722.561,-252 722.561,-216 831.439,-216 831.439,-252"/>
<text text-anchor="middle" x="777" y="-229.8" font-family="Times,serif" font-size="14.00" fill="#000000">AppComponent </text>
</g>
<!-- AppModule&#45;&gt;AppComponent  -->
<g id="edge11" class="edge">
<title>AppModule&#45;&gt;AppComponent </title>
<path fill="none" stroke="#000000" stroke-dasharray="1,5" d="M777,-187.1061C777,-187.1061 777,-205.991 777,-205.991"/>
<polygon fill="#000000" stroke="#000000" points="773.5001,-205.9909 777,-215.991 780.5001,-205.991 773.5001,-205.9909"/>
</g>
<!-- AppRoutingModule -->
<g id="node9" class="node">
<title>AppRoutingModule</title>
<polygon fill="#8dd3c7" stroke="#000000" points="374.2744,-122 371.2744,-126 350.2744,-126 347.2744,-122 245.7256,-122 245.7256,-86 374.2744,-86 374.2744,-122"/>
<text text-anchor="middle" x="310" y="-99.8" font-family="Times,serif" font-size="14.00" fill="#000000">AppRoutingModule</text>
</g>
<!-- AppRoutingModule&#45;&gt;AppModule -->
<g id="edge8" class="edge">
<title>AppRoutingModule&#45;&gt;AppModule</title>
<path fill="none" stroke="#000000" d="M310,-122.2667C310,-140.5552 310,-166 310,-166 310,-166 725.1459,-166 725.1459,-166"/>
<polygon fill="#000000" stroke="#000000" points="725.1459,-169.5001 735.1459,-166 725.1458,-162.5001 725.1459,-169.5001"/>
</g>
<!-- CoreModule -->
<g id="node10" class="node">
<title>CoreModule</title>
<polygon fill="#8dd3c7" stroke="#000000" points="227.2619,-122 224.2619,-126 203.2619,-126 200.2619,-122 140.7381,-122 140.7381,-86 227.2619,-86 227.2619,-122"/>
<text text-anchor="middle" x="184" y="-99.8" font-family="Times,serif" font-size="14.00" fill="#000000">CoreModule</text>
</g>
<!-- CoreModule&#45;&gt;AppModule -->
<g id="edge9" class="edge">
<title>CoreModule&#45;&gt;AppModule</title>
<path fill="none" stroke="#000000" d="M184,-122.1289C184,-142.5724 184,-173 184,-173 184,-173 725.3014,-173 725.3014,-173"/>
<polygon fill="#000000" stroke="#000000" points="725.3014,-176.5001 735.3014,-173 725.3014,-169.5001 725.3014,-176.5001"/>
</g>
<!-- SharedModule -->
<g id="node11" class="node">
<title>SharedModule</title>
<polygon fill="#8dd3c7" stroke="#000000" points="122.4231,-122 119.4231,-126 98.4231,-126 95.4231,-122 23.5769,-122 23.5769,-86 122.4231,-86 122.4231,-122"/>
<text text-anchor="middle" x="73" y="-99.8" font-family="Times,serif" font-size="14.00" fill="#000000">SharedModule</text>
</g>
<!-- SharedModule&#45;&gt;AppModule -->
<g id="edge10" class="edge">
<title>SharedModule&#45;&gt;AppModule</title>
<path fill="none" stroke="#000000" d="M73,-122.0109C73,-144.4852 73,-180 73,-180 73,-180 725.3302,-180 725.3302,-180"/>
<polygon fill="#000000" stroke="#000000" points="725.3303,-183.5001 735.3302,-180 725.3302,-176.5001 725.3303,-183.5001"/>
</g>
</g>
</svg>
